<svg xmlns="http://www.w3.org/2000/svg" width="1024" height="500" viewBox="0 0 1024 500">
<rect width="1024" height="500" fill="#0A0E12"/>
<path d="M111.66,120.00 h39.00 a19.50,19.50 0 0 1 19.50,19.50 v39.00 a19.50,19.50 0 0 1 -19.50,19.50 h-39.00 a19.50,19.50 0 0 1 -19.50,-19.50 v-39.00 a19.50,19.50 0 0 1 19.50,-19.50 z" fill="#7D95A5" fill-opacity="0.26"/>
<path d="M202.66,120.00 h39.00 a19.50,19.50 0 0 1 19.50,19.50 v39.00 a19.50,19.50 0 0 1 -19.50,19.50 h-39.00 a19.50,19.50 0 0 1 -19.50,-19.50 v-39.00 a19.50,19.50 0 0 1 19.50,-19.50 z" fill="#7D95A5" fill-opacity="0.26"/>
<path d="M293.66,120.00 h39.00 a19.50,19.50 0 0 1 19.50,19.50 v39.00 a19.50,19.50 0 0 1 -19.50,19.50 h-39.00 a19.50,19.50 0 0 1 -19.50,-19.50 v-39.00 a19.50,19.50 0 0 1 19.50,-19.50 z" fill="#7D95A5" fill-opacity="0.26"/>
<path d="M111.66,211.00 h39.00 a19.50,19.50 0 0 1 19.50,19.50 v39.00 a19.50,19.50 0 0 1 -19.50,19.50 h-39.00 a19.50,19.50 0 0 1 -19.50,-19.50 v-39.00 a19.50,19.50 0 0 1 19.50,-19.50 z" fill="#7D95A5" fill-opacity="0.26"/>
<path d="M293.66,211.00 h39.00 a19.50,19.50 0 0 1 19.50,19.50 v39.00 a19.50,19.50 0 0 1 -19.50,19.50 h-39.00 a19.50,19.50 0 0 1 -19.50,-19.50 v-39.00 a19.50,19.50 0 0 1 19.50,-19.50 z" fill="#7D95A5" fill-opacity="0.26"/>
<path d="M111.66,302.00 h39.00 a19.50,19.50 0 0 1 19.50,19.50 v39.00 a19.50,19.50 0 0 1 -19.50,19.50 h-39.00 a19.50,19.50 0 0 1 -19.50,-19.50 v-39.00 a19.50,19.50 0 0 1 19.50,-19.50 z" fill="#7D95A5" fill-opacity="0.26"/>
<path d="M202.66,302.00 h39.00 a19.50,19.50 0 0 1 19.50,19.50 v39.00 a19.50,19.50 0 0 1 -19.50,19.50 h-39.00 a19.50,19.50 0 0 1 -19.50,-19.50 v-39.00 a19.50,19.50 0 0 1 19.50,-19.50 z" fill="#7D95A5" fill-opacity="0.26"/>
<path d="M293.66,302.00 h39.00 a19.50,19.50 0 0 1 19.50,19.50 v39.00 a19.50,19.50 0 0 1 -19.50,19.50 h-39.00 a19.50,19.50 0 0 1 -19.50,-19.50 v-39.00 a19.50,19.50 0 0 1 19.50,-19.50 z" fill="#7D95A5" fill-opacity="0.26"/>
<path d="M202.66,211.00 h39.00 a19.50,19.50 0 0 1 19.50,19.50 v39.00 a19.50,19.50 0 0 1 -19.50,19.50 h-39.00 a19.50,19.50 0 0 1 -19.50,-19.50 v-39.00 a19.50,19.50 0 0 1 19.50,-19.50 z" fill="#4FE8DA"/>
<text x="423.84" y="230.0" font-family="Inter, Noto Sans, sans-serif" font-weight="600" font-size="95.0" fill="#E8F0F5">Sendoku</text>
<text x="423.84" y="300.0" font-family="Inter, Noto Sans, sans-serif" font-weight="500" font-size="29.0" letter-spacing="6.0" fill="#4FE8DA">HARDER THAN IT LOOKS</text>
<text x="423.84" y="360.0" font-family="Inter, Noto Sans, sans-serif" font-weight="400" font-size="23.0" fill="#7D95A5">Rated by technique, not by clue count.</text>
</svg>
